<?xml version="1.0" encoding="UTF-8"?>
<svg xmlns="http://www.w3.org/2000/svg" xmlns:xlink="http://www.w3.org/1999/xlink" width="55px" height="40px" version="1.1" viewBox="0 0 55 40">
    <g fill="#FF0050" transform="translate(-421.000000, -275.000000)">
        <path d="M442.844445,286.582922 L445.528282,299.049607 C445.68967,299.788492 445.224627,300.519105 444.487851,300.684193 C444.389519,300.69293 444.290607,300.69293 444.192275,300.684193 C443.549936,300.682673 442.994701,300.234714 442.856268,299.606314 L439.995084,286.577 L434.674702,286.577 L434.674702,292.499415 C434.674702,293.254984 434.063318,293.867493 433.309138,293.867493 C432.554957,293.867493 431.943573,293.254984 431.943573,292.499415 L431.943573,286.577 L426.623191,286.577 L423.762007,299.606314 C423.645385,300.149481 423.212454,300.568047 422.66648,300.66549 C422.120505,300.762932 421.569928,300.519898 421.273251,300.050495 C421.078842,299.744673 421.01297,299.374264 421.089993,299.019995 L423.821123,286.582922 L422.46147,286.582922 C421.951077,286.616547 421.464417,286.362831 421.199036,285.924762 C420.933655,285.486693 420.933655,284.937073 421.199036,284.499004 C421.464417,284.060935 421.951077,283.807219 422.46147,283.840844 L431.967219,283.840844 L431.967219,279.795834 L422.46147,279.795834 C421.707289,279.795834 421.095905,279.183324 421.095905,278.427756 C421.095905,277.672187 421.707289,277.059678 422.46147,277.059678 L442.064122,277.059678 C442.489507,277.056425 442.832634,276.710022 442.832621,276.283841 C442.880031,275.561562 443.478632,275 444.201142,275 C444.923652,275 445.522253,275.561562 445.569662,276.283841 C445.566408,278.222109 443.998829,279.792574 442.064122,279.795834 L434.698348,279.795834 L434.698348,283.840844 L444.204098,283.840844 C444.71449,283.807219 445.20115,284.060935 445.466531,284.499004 C445.731913,284.937073 445.731913,285.486693 445.466531,285.924762 C445.20115,286.362831 444.71449,286.616547 444.204098,286.582922 L442.844445,286.582922 Z M441.177391,302.721504 C443.595851,302.737764 445.548736,304.704818 445.551928,307.127782 L445.551928,310.539093 C445.548671,312.97126 443.581444,314.942108 441.153745,314.94537 L436.495455,314.94537 C435.741275,314.94537 435.12989,314.332861 435.12989,313.577292 C435.12989,312.821723 435.741275,312.209214 436.495455,312.209214 L441.153745,312.209214 C442.072124,312.205951 442.814893,311.459167 442.814887,310.539093 L442.814887,307.127782 C442.814887,306.20867 442.071168,305.463583 441.153745,305.463583 L437.01567,305.463583 C436.603662,305.463658 436.213644,305.277366 435.954309,304.956626 C435.694975,304.635885 435.594051,304.214986 435.679663,303.811229 L436.921086,297.965805 L430.9327,297.965805 L428.183836,310.675308 C427.652401,313.172021 425.447068,314.953868 422.898923,314.94537 C422.144743,314.94537 421.533358,314.332861 421.533358,313.577292 C421.533358,312.821723 422.144743,312.209214 422.898923,312.209214 C424.156844,312.205003 425.243065,311.326055 425.511822,310.094912 L428.166101,297.965805 L427.876436,297.965805 C427.122256,297.965805 426.510872,297.353295 426.510872,296.597727 C426.510872,295.842158 427.122256,295.229649 427.876436,295.229649 L438.617697,295.229649 C439.031639,295.226713 439.42397,295.414505 439.681773,295.738976 C439.940749,296.058988 440.04273,296.478531 439.959615,296.882003 L438.718193,302.721504 L441.177391,302.721504 Z M471.680915,277.059678 C473.615623,277.062938 475.183202,278.633403 475.186456,280.57167 L475.186456,310.539093 C475.1832,312.97126 473.215973,314.942108 470.788274,314.94537 L466.738872,314.94537 C465.984691,314.94537 465.373307,314.332861 465.373307,313.577292 C465.373307,312.821723 465.984691,312.209214 466.738872,312.209214 L470.788274,312.209214 C471.707615,312.205965 472.452084,311.460126 472.455327,310.539093 L472.455327,280.57167 C472.455327,280.143188 472.108611,279.795834 471.680915,279.795834 L465.597945,279.795834 C463.663238,279.792574 462.095659,278.222109 462.092405,276.283841 C462.139814,275.561562 462.738415,275 463.460925,275 C464.183435,275 464.782036,275.561562 464.829446,276.283841 C464.829433,276.710022 465.17256,277.056425 465.597945,277.059678 L471.680915,277.059678 Z M452.592567,295.579071 C451.838386,295.579071 451.227002,294.966562 451.227002,294.210993 L451.227002,281.99305 C451.318974,279.333308 453.497818,277.224764 456.154267,277.224764 C458.810716,277.224764 460.989561,279.333308 461.081532,281.99305 L461.081532,294.210993 C461.034122,294.933273 460.435522,295.494835 459.713012,295.494835 C458.990502,295.494835 458.391901,294.933273 458.344491,294.210993 L458.344491,281.99305 C458.386568,281.181918 457.97856,280.413694 457.283565,279.995468 C456.588569,279.577242 455.719965,279.577242 455.02497,279.995468 C454.329974,280.413694 453.921966,281.181918 453.964043,281.99305 L453.964043,294.210993 C453.964047,294.574859 453.819364,294.923735 453.561991,295.18047 C453.304618,295.437206 452.95576,295.580646 452.592567,295.579071 Z M457.49323,296.307528 L461.164294,313.298938 C461.321372,314.039554 460.850797,314.767904 460.11204,314.927603 C459.376528,315.075194 458.656895,314.61116 458.486368,313.879335 L456.151311,303.082772 L453.822166,313.879335 C453.646582,314.606434 452.922656,315.059197 452.19351,314.897942 C451.464364,314.736686 450.997971,314.020675 451.144241,313.287094 L454.815304,296.307528 C454.954496,295.678557 455.511207,295.230934 456.154267,295.230934 C456.797328,295.230934 457.354038,295.678557 457.49323,296.307528 Z M470.374466,304.101427 C470.37448,304.466326 470.228986,304.816109 469.97033,305.073016 C469.711675,305.329924 469.361293,305.472664 468.997078,305.469505 L462.494389,305.469505 C462.081099,305.469965 461.689835,305.282882 461.430257,304.960688 C461.170678,304.638494 461.070714,304.215858 461.158382,303.811229 L465.491538,283.793464 C465.627578,283.162711 466.183424,282.711795 466.827545,282.709662 C466.925152,282.710166 467.022366,282.722091 467.11721,282.745197 C467.853565,282.907634 468.32094,283.635119 468.163552,284.373861 L464.191,302.733349 L467.637425,302.733349 L467.637425,298.635038 C467.603862,298.123706 467.857112,297.63615 468.294376,297.370281 C468.73164,297.104411 469.280251,297.104411 469.717515,297.370281 C470.154779,297.63615 470.408029,298.123706 470.374466,298.635038 L470.374466,304.101427 Z"/>
    </g>
</svg>
